<svg width="110" height="110" viewBox="0 0 110 110" fill="none" xmlns="http://www.w3.org/2000/svg">
<rect width="110" height="110" rx="55" fill="url(#paint0_linear_812_33)"/>
<path d="M27.9944 63.375C25.4778 63.375 23.4111 62.5083 21.7944 60.775C20.1944 59.025 19.3944 56.8083 19.3944 54.125C19.3944 51.425 20.1778 49.1917 21.7444 47.425C23.3111 45.6583 25.3861 44.775 27.9694 44.775C30.1028 44.775 31.8111 45.3417 33.0944 46.475C34.3944 47.5917 35.1444 49.0333 35.3444 50.8H31.7444C31.5778 49.8833 31.1611 49.1583 30.4944 48.625C29.8444 48.0917 29.0028 47.825 27.9694 47.825C26.3861 47.825 25.1778 48.4083 24.3444 49.575C23.5111 50.7417 23.0944 52.2583 23.0944 54.125C23.0944 55.975 23.5361 57.4833 24.4194 58.65C25.3194 59.8167 26.5111 60.4 27.9944 60.4C29.0444 60.4 29.9194 60.1167 30.6194 59.55C31.3194 58.9667 31.7278 58.2 31.8444 57.25H35.3944C35.2944 58.9333 34.6361 60.3417 33.4194 61.475C32.0694 62.7417 30.2611 63.375 27.9944 63.375ZM37.2593 63V45.125H40.8843V59.975H49.2843V63H37.2593ZM51.2491 63V45.125H54.8741V63H51.2491ZM65.47 63.375C62.9534 63.375 60.8867 62.5083 59.27 60.775C57.67 59.025 56.87 56.8083 56.87 54.125C56.87 51.425 57.6534 49.1917 59.22 47.425C60.7867 45.6583 62.8617 44.775 65.445 44.775C67.5784 44.775 69.2867 45.3417 70.57 46.475C71.87 47.5917 72.62 49.0333 72.82 50.8H69.22C69.0534 49.8833 68.6367 49.1583 67.97 48.625C67.32 48.0917 66.4784 47.825 65.445 47.825C63.8617 47.825 62.6534 48.4083 61.82 49.575C60.9867 50.7417 60.57 52.2583 60.57 54.125C60.57 55.975 61.0117 57.4833 61.895 58.65C62.795 59.8167 63.9867 60.4 65.47 60.4C66.52 60.4 67.395 60.1167 68.095 59.55C68.795 58.9667 69.2034 58.2 69.32 57.25H72.87C72.77 58.9333 72.1117 60.3417 70.895 61.475C69.545 62.7417 67.7367 63.375 65.47 63.375ZM74.7349 63V45.125H78.3599V52.25L85.2349 45.125H89.7349L82.7349 52.275L90.1849 63H85.9349L80.1849 54.65L78.3599 56.5V63H74.7349Z" fill="#1E1E1E"/>
<defs>
<linearGradient id="paint0_linear_812_33" x1="3.81503" y1="62.6744" x2="110.044" y2="62.121" gradientUnits="userSpaceOnUse">
<stop offset="0.161458" stop-color="#97FFDA"/>
<stop offset="1" stop-color="#CC94E0"/>
</linearGradient>
</defs>
</svg>
