<svg width="49" height="50" viewBox="0 0 49 50" fill="none" xmlns="http://www.w3.org/2000/svg">
<g clip-path="url(#clip0_138_99)">
<path d="M16.3333 50C20.8413 50 24.5 46.2667 24.5 41.6667V33.3333H16.3333C11.8253 33.3333 8.16663 37.0667 8.16663 41.6667C8.16663 46.2667 11.8253 50 16.3333 50Z" fill="#F5F3F5"/>
<path d="M8.16663 25C8.16663 20.4 11.8253 16.6667 16.3333 16.6667H24.5V33.3333H16.3333C11.8253 33.3333 8.16663 29.6 8.16663 25Z" fill="#F7F5F7"/>
<path d="M8.16663 8.33333C8.16663 3.73333 11.8253 0 16.3333 0H24.5V16.6667H16.3333C11.8253 16.6667 8.16663 12.9333 8.16663 8.33333Z" fill="#F9F7F9"/>
<path d="M24.5 0H32.6667C37.1747 0 40.8333 3.73333 40.8333 8.33333C40.8333 12.9333 37.1747 16.6667 32.6667 16.6667H24.5V0Z" fill="#F8F6F8"/>
<path d="M40.8333 25C40.8333 29.6 37.1747 33.3333 32.6667 33.3333C28.1587 33.3333 24.5 29.6 24.5 25C24.5 20.4 28.1587 16.6667 32.6667 16.6667C37.1747 16.6667 40.8333 20.4 40.8333 25Z" fill="#F5F3F5"/>
</g>
<defs>
<clipPath id="clip0_138_99">
<rect width="49" height="50" fill="white"/>
</clipPath>
</defs>
</svg>
