<svg width="44" height="60" viewBox="0 0 44 60" fill="none" xmlns="http://www.w3.org/2000/svg">
<g clip-path="url(#clip0_802_28)">
<g filter="url(#filter0_i_802_28)">
<path d="M0.215332 47.9848L0.491191 47.4497L17.5675 15.2308L9.97921 0.964407C9.3486 -0.213308 7.74707 0.0869746 7.54013 1.40535L0.215332 47.9848Z" fill="#FDFBFD"/>
</g>
<g filter="url(#filter1_i_802_28)">
<path d="M23.103 25.4665L28.6097 19.8588L23.103 9.43228C22.5801 8.44256 21.3098 8.33882 20.7925 9.33144L17.7494 15.1609L17.6583 15.4589L23.103 25.4665Z" fill="white"/>
</g>
<path d="M0 48.3721L0.165344 48.2066L0.766219 47.9639L22.8482 26.0879L23.128 25.3307L17.6194 14.8927L0 48.3721Z" fill="#DDDDDD"/>
<path d="M43.7171 48.2289L38.0534 13.5448C37.8764 12.4595 36.7544 12.0106 35.9732 12.7887L0.22168 48.3041L19.8737 59.2263C20.4866 59.5666 21.1769 59.7453 21.8788 59.7455C22.5808 59.7457 23.2711 59.5673 23.8842 59.2274L43.7172 48.2287L43.7171 48.2289Z" fill="#FDFBFD"/>
</g>
<defs>
<filter id="filter0_i_802_28" x="0.215332" y="0.228394" width="17.3522" height="47.7564" filterUnits="userSpaceOnUse" color-interpolation-filters="sRGB">
<feFlood flood-opacity="0" result="BackgroundImageFix"/>
<feBlend mode="normal" in="SourceGraphic" in2="BackgroundImageFix" result="shape"/>
<feColorMatrix in="SourceAlpha" type="matrix" values="0 0 0 0 0 0 0 0 0 0 0 0 0 0 0 0 0 0 127 0" result="hardAlpha"/>
<feOffset/>
<feGaussianBlur stdDeviation="124.619"/>
<feComposite in2="hardAlpha" operator="arithmetic" k2="-1" k3="1"/>
<feColorMatrix type="matrix" values="0 0 0 0 0 0 0 0 0 0 0 0 0 0 0 0 0 0 0.06 0"/>
<feBlend mode="normal" in2="shape" result="effect1_innerShadow_802_28"/>
</filter>
<filter id="filter1_i_802_28" x="17.6583" y="-41.2112" width="18.0725" height="66.6777" filterUnits="userSpaceOnUse" color-interpolation-filters="sRGB">
<feFlood flood-opacity="0" result="BackgroundImageFix"/>
<feBlend mode="normal" in="SourceGraphic" in2="BackgroundImageFix" result="shape"/>
<feColorMatrix in="SourceAlpha" type="matrix" values="0 0 0 0 0 0 0 0 0 0 0 0 0 0 0 0 0 0 127 0" result="hardAlpha"/>
<feOffset dx="7.12109" dy="-64.0898"/>
<feGaussianBlur stdDeviation="24.9238"/>
<feComposite in2="hardAlpha" operator="arithmetic" k2="-1" k3="1"/>
<feColorMatrix type="matrix" values="0 0 0 0 0 0 0 0 0 0 0 0 0 0 0 0 0 0 0.09 0"/>
<feBlend mode="normal" in2="shape" result="effect1_innerShadow_802_28"/>
</filter>
<clipPath id="clip0_802_28">
<rect width="44" height="60" fill="white"/>
</clipPath>
</defs>
</svg>
