<svg width="63" height="63" viewBox="0 0 63 63" fill="none" xmlns="http://www.w3.org/2000/svg">
<g clip-path="url(#clip0_136_42)">
<path d="M30.6991 3.98734C15.5086 3.98734 3.18984 16.3543 3.18984 31.61C3.18363 37.3999 4.99712 43.0453 8.37402 47.7484C11.7509 52.4515 16.5204 55.9744 22.0085 57.8193C23.3841 58.0738 23.8862 57.2209 23.8862 56.4884C23.8862 55.8315 23.8622 54.0948 23.8484 51.7906C16.1964 53.4585 14.5801 48.0867 14.5801 48.0867C13.3317 44.8952 11.5262 44.0458 11.5262 44.0458C9.02596 42.3331 11.7119 42.3675 11.7119 42.3675C14.4735 42.5635 15.9248 45.2151 15.9248 45.2151C18.3803 49.4348 22.3662 48.2174 23.9344 47.5089C24.182 45.724 24.8939 44.5066 25.6814 43.8154C19.5736 43.1172 13.1494 40.7477 13.1494 30.1656C13.1494 27.1496 14.2224 24.6837 15.9832 22.751C15.6978 22.0528 14.7555 19.2431 16.2515 15.4429C16.2515 15.4429 18.5625 14.7001 23.8174 18.2733C26.0623 17.6598 28.3788 17.3475 30.7059 17.3447C33.0332 17.3494 35.3496 17.6628 37.5944 18.2767C42.8459 14.7035 45.1535 15.4464 45.1535 15.4464C46.653 19.25 45.7106 22.0563 45.4286 22.7544C47.1929 24.6872 48.2556 27.153 48.2556 30.1691C48.2556 40.7786 41.8245 43.1138 35.696 43.7982C36.6831 44.6511 37.5635 46.3362 37.5635 48.9121C37.5635 52.6056 37.5291 55.5839 37.5291 56.4884C37.5291 57.2278 38.0243 58.0875 39.4206 57.8159C44.9033 55.9666 49.6669 52.4423 53.0391 47.7404C56.4113 43.0384 58.2218 37.3962 58.2151 31.61C58.2151 16.3543 45.8964 3.98734 30.6991 3.98734Z" fill="#F9F7F9"/>
</g>
<defs>
<clipPath id="clip0_136_42">
<rect width="55.0253" height="55.0253" fill="white" transform="translate(3.18982 3.98734)"/>
</clipPath>
</defs>
</svg>
