<svg width="700" height="534" viewBox="0 0 700 534" fill="none" xmlns="http://www.w3.org/2000/svg">
<g filter="url(#filter0_f_1330_2)">
<path d="M285.606 308.286C236.166 232.025 234.827 159.709 240.337 133.083C266.757 86.7335 463.59 85.8065 543.466 151.314C623.342 216.822 617.008 302.879 525.39 360.044C433.771 417.209 347.406 403.613 285.606 308.286Z" fill="#FF55EE"/>
</g>
<g filter="url(#filter1_f_1330_2)">
<path d="M393.241 409.154C208.088 508.652 120.6 285.4 100 161.336L361.568 125.029C449.273 178.28 578.393 309.656 393.241 409.154Z" fill="#73FFD0"/>
</g>
<g filter="url(#filter2_f_1330_2)">
<path d="M361.967 326.657C286.308 367.314 250.559 276.086 242.142 225.389L349.027 210.555C384.865 232.315 437.627 286.001 361.967 326.657Z" fill="white"/>
</g>
<defs>
<filter id="filter0_f_1330_2" x="138.123" y="0" width="560.941" height="493.989" filterUnits="userSpaceOnUse" color-interpolation-filters="sRGB">
<feFlood flood-opacity="0" result="BackgroundImageFix"/>
<feBlend mode="normal" in="SourceGraphic" in2="BackgroundImageFix" result="shape"/>
<feGaussianBlur stdDeviation="50" result="effect1_foregroundBlur_1330_2"/>
</filter>
<filter id="filter1_f_1330_2" x="0" y="25.029" width="587.712" height="508.971" filterUnits="userSpaceOnUse" color-interpolation-filters="sRGB">
<feFlood flood-opacity="0" result="BackgroundImageFix"/>
<feBlend mode="normal" in="SourceGraphic" in2="BackgroundImageFix" result="shape"/>
<feGaussianBlur stdDeviation="50" result="effect1_foregroundBlur_1330_2"/>
</filter>
<filter id="filter2_f_1330_2" x="142.142" y="110.555" width="358.43" height="326.255" filterUnits="userSpaceOnUse" color-interpolation-filters="sRGB">
<feFlood flood-opacity="0" result="BackgroundImageFix"/>
<feBlend mode="normal" in="SourceGraphic" in2="BackgroundImageFix" result="shape"/>
<feGaussianBlur stdDeviation="50" result="effect1_foregroundBlur_1330_2"/>
</filter>
</defs>
</svg>
