<svg width="54" height="54" viewBox="0 0 54 54" fill="none" xmlns="http://www.w3.org/2000/svg">
<g clip-path="url(#clip0_136_10)">
<path fill-rule="evenodd" clip-rule="evenodd" d="M53.406 0.594002H0.593994V53.4064H53.406V0.594002ZM42.4723 34.4904C47.126 36.3774 48.697 38.4012 49.0839 40.8105C49.4556 42.884 48.9932 44.229 48.9236 44.4306C47.2066 50.304 37.6334 50.4946 33.8078 46.6142C33.6923 46.4837 33.583 46.3621 33.479 46.2465C32.8552 45.5527 32.4239 45.0731 32.0106 44.1695C33.0407 43.5771 33.5489 43.2848 34.0568 42.9918C34.5515 42.7063 35.0459 42.4203 36.0218 41.8555C37.0963 43.5071 38.0903 44.4154 39.8773 44.7871C42.3023 45.0833 44.742 44.2496 44.1948 41.6745C43.8688 40.4551 42.2522 39.7706 40.367 38.9724C39.0003 38.3937 37.4924 37.7553 36.2327 36.8099C33.1906 34.7667 32.4776 29.8021 34.9777 26.9654C35.8109 25.9162 37.2318 25.1336 38.7227 24.7569L40.2785 24.5557C43.2654 24.4953 45.133 25.2838 46.5037 26.8148C46.8851 27.2012 47.196 27.618 47.7786 28.5213C47.4487 28.7316 47.1873 28.8978 46.96 29.0424C46.0911 29.5953 45.7194 29.8317 43.913 31.0015C43.4257 29.9523 42.6178 29.2946 41.7644 29.0085C40.4393 28.6069 38.7674 29.0436 38.421 30.4442C38.3004 30.8758 38.3257 31.2774 38.5164 31.9904C38.9511 32.982 40.2147 33.5195 41.5379 34.0824C41.8494 34.2149 42.1642 34.3488 42.4723 34.4904ZM24.3646 24.8666H29.3043C29.3043 26.3736 29.307 27.8789 29.3098 29.3831C29.3153 32.4137 29.3208 35.44 29.3039 38.4666C29.3054 38.8766 29.3119 39.2807 29.3183 39.6786C29.3555 41.9743 29.3892 44.0585 28.4306 45.8258C27.6527 47.4074 26.1668 48.4464 24.4447 48.948C21.7987 49.5555 19.2687 49.2092 17.3863 48.0794C16.1262 47.3065 15.1424 46.1168 14.4745 44.7462L18.4908 42.2866C18.5227 42.2999 18.6113 42.4557 18.7311 42.6663C18.7444 42.6897 18.7581 42.7138 18.7722 42.7385C19.2839 43.5966 19.7256 44.2036 20.5943 44.6306C21.4477 44.9217 23.3204 45.1077 24.0431 43.6067C24.3955 42.9978 24.3773 41.2899 24.3556 39.2449C24.3501 38.7266 24.3443 38.1867 24.3443 37.6376L24.3646 24.8666Z" fill="#FEFCFE"/>
</g>
<rect x="1" y="1" width="52" height="52" stroke="#F8F6F8" stroke-width="2"/>
<defs>
<clipPath id="clip0_136_10">
<rect width="54" height="54" fill="white"/>
</clipPath>
</defs>
</svg>
