<svg width="47" height="47" viewBox="0 0 47 47" fill="none" xmlns="http://www.w3.org/2000/svg">
<path fill-rule="evenodd" clip-rule="evenodd" d="M44.3206 0.586494C45.4737 0.586494 46.4134 1.52617 46.4134 2.67932V44.5359C46.4134 45.689 45.4737 46.6287 44.3206 46.6287H2.46404C1.31089 46.6287 0.371216 45.689 0.371216 44.5359V2.67932C0.371216 1.52617 1.31089 0.586494 2.46404 0.586494H44.3206ZM26.542 32.1296C27.4419 32.6465 28.999 33.0295 30.8323 33.0295C34.2855 33.0295 36.8387 31.2297 36.8387 27.8811C36.8387 25.6376 35.8049 24.1203 32.5233 22.5298C30.3112 21.3892 29.9345 20.8723 29.9345 20.1126C29.9345 19.4219 30.487 18.5932 32.1445 18.5932L32.1361 18.5848C33.4818 18.5848 34.8547 18.9322 35.7839 19.4847C35.9932 19.5538 36.0979 19.4491 36.0979 19.2754V16.4083C36.0979 16.2701 36.0602 16.0985 35.8886 15.9939C35.198 15.6841 33.9339 15.4079 32.1341 15.4079C28.4737 15.4079 26.3683 17.6535 26.3683 20.347C26.3683 22.7684 27.6115 24.2124 30.5833 25.6355C32.6907 26.7406 33.1721 27.3977 33.1721 28.1574C33.1721 29.0908 32.4815 29.7814 30.8239 29.7814C29.3295 29.7839 27.8666 29.352 26.6132 28.5383C26.475 28.4357 26.3746 28.5048 26.3746 28.7141V31.7843C26.3746 31.958 26.406 32.0605 26.542 32.1296ZM10.8856 9.71959C12.2334 9.65053 14.209 9.61495 16.2809 9.61495C22.0822 9.61495 24.3383 12.796 24.3383 16.8687C24.3383 22.1845 20.4833 24.4656 15.7535 24.4656C15.3201 24.4656 15.0421 24.4551 14.7891 24.4455C14.5778 24.4374 14.3839 24.4301 14.1316 24.4301V32.4707C14.1316 32.6444 14.0625 32.7135 13.8909 32.7135H10.6596C10.4858 32.7135 10.4189 32.6507 10.4189 32.477V9.96236H10.4168C10.4168 9.82214 10.7098 9.71959 10.8856 9.71959ZM14.1336 21.0795C14.615 21.1129 14.9959 21.1129 15.8267 21.1129C18.2754 21.1129 20.5775 20.2507 20.5775 16.9357C20.5775 14.2778 18.9325 12.93 16.1365 12.93C15.4682 12.9268 14.8001 12.9498 14.1336 12.9991V21.0795Z" fill="#FEFCFE"/>
</svg>
