<svg width="56" height="52" viewBox="0 0 56 52" fill="none" xmlns="http://www.w3.org/2000/svg">
<path d="M56 26.0057C56 22.285 51.3543 18.7588 44.2316 16.5721C45.8753 9.29089 45.1447 3.49795 41.9258 1.64329C41.1839 1.20824 40.3163 1.00217 39.3689 1.00217V3.55519C39.894 3.55519 40.3163 3.65823 40.6702 3.85285C42.2226 4.74583 42.896 8.14604 42.371 12.5194C42.2454 13.5955 42.04 14.7289 41.7888 15.8852C39.5516 15.3357 37.1088 14.9121 34.5406 14.6373C32.9996 12.5194 31.4016 10.596 29.7921 8.91309C33.5133 5.44419 37.0061 3.54374 39.3804 3.54374V0.990723C36.2413 0.990723 32.1321 3.23463 27.9772 7.12713C23.8223 3.25753 19.713 1.03652 16.574 1.03652V3.58953C18.9368 3.58953 22.4411 5.47854 26.1623 8.92454C24.5642 10.6075 22.9662 12.5194 21.448 14.6373C18.8683 14.9121 16.4256 15.3357 14.1883 15.8967C13.9258 14.7518 13.7318 13.6413 13.5948 12.5766C13.0583 8.20328 13.7203 4.80308 15.2613 3.89864C15.6038 3.69257 16.0489 3.60098 16.574 3.60098V1.04797C15.6152 1.04797 14.7477 1.25404 13.9943 1.68908C10.7868 3.54374 10.0677 9.32524 11.7228 16.5836C4.62291 18.7817 0 22.2964 0 26.0057C0 29.7265 4.64574 33.2526 11.7684 35.4393C10.1247 42.7205 10.8553 48.5135 14.0742 50.3682C14.8161 50.8032 15.6837 51.0093 16.6425 51.0093C19.7815 51.0093 23.8907 48.7654 28.0457 44.8729C32.2006 48.7425 36.3098 50.9635 39.4488 50.9635C40.4077 50.9635 41.2752 50.7574 42.0285 50.3224C45.236 48.4677 45.9552 42.6862 44.3 35.4278C51.3771 33.2412 56 29.715 56 26.0057ZM41.1382 18.3696C40.7159 19.8464 40.1908 21.3691 39.5972 22.8917C39.1292 21.9758 38.6384 21.06 38.1019 20.1441C37.5768 19.2282 37.0175 18.3352 36.4582 17.4651C38.0791 17.7055 39.6429 18.0032 41.1382 18.3696ZM35.9103 30.5622C35.02 32.1078 34.1068 33.5732 33.1594 34.9356C31.4586 35.0844 29.735 35.1645 28 35.1645C26.2764 35.1645 24.5528 35.0844 22.8634 34.947C21.916 33.5846 20.9914 32.1307 20.1011 30.5966C19.2336 29.0968 18.446 27.5742 17.7269 26.0401C18.4346 24.506 19.2336 22.9719 20.0897 21.4721C20.98 19.9266 21.8932 18.4612 22.8406 17.0988C24.5414 16.9499 26.265 16.8698 28 16.8698C29.7236 16.8698 31.4472 16.9499 33.1366 17.0873C34.084 18.4497 35.0086 19.9037 35.8989 21.4378C36.7664 22.9375 37.554 24.4602 38.2731 25.9943C37.554 27.5284 36.7664 29.0625 35.9103 30.5622ZM39.5972 29.0739C40.2136 30.608 40.7387 32.1421 41.1724 33.6304C39.6771 33.9968 38.1019 34.3059 36.4696 34.5463C37.0289 33.6648 37.5883 32.7603 38.1133 31.833C38.6384 30.9171 39.1292 29.9898 39.5972 29.0739ZM28.0228 41.2895C26.9613 40.1904 25.8997 38.9654 24.8496 37.626C25.8769 37.6718 26.927 37.7061 27.9886 37.7061C29.0616 37.7061 30.1231 37.6832 31.1618 37.626C30.1345 38.9654 29.073 40.1904 28.0228 41.2895ZM19.5304 34.5463C17.9095 34.3059 16.3457 34.0082 14.8504 33.6419C15.2727 32.165 15.7978 30.6424 16.3914 29.1197C16.8594 30.0356 17.3502 30.9515 17.8867 31.8674C18.4232 32.7832 18.9711 33.6762 19.5304 34.5463ZM27.9658 10.722C29.0273 11.821 30.0889 13.046 31.139 14.3855C30.1117 14.3397 29.0616 14.3053 28 14.3053C26.927 14.3053 25.8655 14.3282 24.8267 14.3855C25.8541 13.046 26.9156 11.821 27.9658 10.722ZM19.519 17.4651C18.9596 18.3467 18.4003 19.2511 17.8753 20.1784C17.3502 21.0943 16.8594 22.0102 16.3914 22.9261C15.775 21.392 15.2499 19.8579 14.8161 18.3696C16.3115 18.0147 17.8867 17.7055 19.519 17.4651ZM9.18875 31.7987C5.14798 30.0699 2.53404 27.8031 2.53404 26.0057C2.53404 24.2083 5.14798 21.93 9.18875 20.2128C10.1704 19.7892 11.2434 19.4114 12.3506 19.0565C13.0012 21.3004 13.8573 23.6359 14.9189 26.0286C13.8687 28.4099 13.0241 30.734 12.3848 32.9664C11.2548 32.6115 10.1818 32.2223 9.18875 31.7987ZM15.3298 48.1586C13.7774 47.2656 13.104 43.8654 13.629 39.4921C13.7546 38.4159 13.9601 37.2825 14.2112 36.1262C16.4484 36.6757 18.8912 37.0993 21.4594 37.3741C23.0004 39.4921 24.5985 41.4154 26.2079 43.0983C22.4868 46.5672 18.9939 48.4677 16.6196 48.4677C16.106 48.4563 15.6722 48.3532 15.3298 48.1586ZM42.4052 39.4348C42.9417 43.8082 42.2797 47.2084 40.7387 48.1128C40.3962 48.3189 39.9511 48.4105 39.426 48.4105C37.0632 48.4105 33.5589 46.5215 29.8378 43.0755C31.4358 41.3925 33.0338 39.4806 34.552 37.3626C37.1317 37.0879 39.5744 36.6643 41.8117 36.1033C42.0742 37.2596 42.2797 38.3701 42.4052 39.4348ZM46.7998 31.7987C45.8182 32.2223 44.7452 32.6001 43.638 32.955C42.9874 30.7111 42.1313 28.3756 41.0697 25.9828C42.1199 23.6015 42.9645 21.2775 43.6038 19.045C44.7338 19.3999 45.8068 19.7892 46.8113 20.2128C50.852 21.9415 53.466 24.2083 53.466 26.0057C53.4545 27.8031 50.8406 30.0814 46.7998 31.7987Z" fill="#FDFBFD"/>
<path d="M27.9886 31.2377C30.8695 31.2377 33.205 28.8952 33.205 26.0057C33.205 23.1162 30.8695 20.7737 27.9886 20.7737C25.1076 20.7737 22.7721 23.1162 22.7721 26.0057C22.7721 28.8952 25.1076 31.2377 27.9886 31.2377Z" fill="#FDFBFD"/>
</svg>
