<svg width="67" height="40" viewBox="0 0 67 40" fill="none" xmlns="http://www.w3.org/2000/svg">
<g clip-path="url(#clip0_228_46)">
<path d="M33.5 0.0531921C24.5668 0.0531921 18.9832 4.4859 16.75 13.3511C20.1 8.91835 24.0082 7.25612 28.475 8.36436C31.0234 8.99653 32.8449 10.8315 34.8612 12.8623C38.1458 16.1709 41.947 20 50.25 20C59.1832 20 64.7668 15.5673 67 6.70213C63.65 11.1348 59.7418 12.7971 55.275 11.6888C52.7266 11.0567 50.9051 9.22171 48.8888 7.19093C45.6042 3.8823 41.803 0.0531921 33.5 0.0531921ZM16.75 20C7.81675 20 2.23325 24.4327 0 33.2979C3.35 28.8652 7.25825 27.2029 11.725 28.3112C14.2734 28.9433 16.0949 30.7783 18.1112 32.8091C21.3958 36.1177 25.197 39.9468 33.5 39.9468C42.4332 39.9468 48.0168 35.5141 50.25 26.6489C46.9 31.0816 42.9918 32.7439 38.525 31.6356C35.9766 31.0035 34.1551 29.1685 32.1388 27.1377C28.8542 23.8291 25.053 20 16.75 20Z" fill="#FCFAFC"/>
</g>
<defs>
<clipPath id="clip0_228_46">
<rect width="67" height="40" fill="white"/>
</clipPath>
</defs>
</svg>
