<svg width="53" height="48" viewBox="0 0 53 48" fill="none" xmlns="http://www.w3.org/2000/svg">
<path fill-rule="evenodd" clip-rule="evenodd" d="M19.1397 3.1528L18.2873 17.5233C18.2607 17.9733 18.6747 18.3226 19.1148 18.2213L24.2444 17.0396C24.7243 16.9291 25.158 17.3511 25.0593 17.8329L23.5353 25.2823C23.4328 25.7837 23.9043 26.2124 24.3948 26.0637L27.5631 25.1028C28.0543 24.9539 28.5262 25.3839 28.4223 25.8856L26.0004 37.587C25.8489 38.3189 26.8242 38.7181 27.2309 38.0905L27.5026 37.6714L42.5158 7.76351C42.7672 7.26275 42.3337 6.69175 41.7827 6.79788L36.5026 7.81511C36.0065 7.9106 35.5843 7.44935 35.7243 6.96476L36.97 2.65424L51.4009 0.0286642C52.5267 -0.176153 53.383 1.01974 52.8246 2.01671L27.9279 46.457C27.4138 47.3745 26.0932 47.3799 25.5714 46.4668L0.181035 2.02099C-0.387379 1.02598 0.464982 -0.179247 1.59454 0.0222886L19.1397 3.1528Z" fill="#FDFBFD"/>
</svg>
